<svg width="41" height="42" viewBox="0 0 41 42" fill="none" xmlns="http://www.w3.org/2000/svg">
<rect width="41" height="42" fill="white"/>
<path d="M22.2082 28H5.12484C4.67176 28 4.23724 28.1844 3.91686 28.5126C3.59649 28.8408 3.4165 29.2859 3.4165 29.75C3.4165 30.2141 3.59649 30.6592 3.91686 30.9874C4.23724 31.3156 4.67176 31.5 5.12484 31.5H22.2082C22.6612 31.5 23.0958 31.3156 23.4161 30.9874C23.7365 30.6592 23.9165 30.2141 23.9165 29.75C23.9165 29.2859 23.7365 28.8408 23.4161 28.5126C23.0958 28.1844 22.6612 28 22.2082 28ZM5.12484 14H35.8748C36.3279 14 36.7624 13.8156 37.0828 13.4874C37.4032 13.1592 37.5832 12.7141 37.5832 12.25C37.5832 11.7859 37.4032 11.3408 37.0828 11.0126C36.7624 10.6844 36.3279 10.5 35.8748 10.5H5.12484C4.67176 10.5 4.23724 10.6844 3.91686 11.0126C3.59649 11.3408 3.4165 11.7859 3.4165 12.25C3.4165 12.7141 3.59649 13.1592 3.91686 13.4874C4.23724 13.8156 4.67176 14 5.12484 14V14ZM35.8748 19.25H5.12484C4.67176 19.25 4.23724 19.4344 3.91686 19.7626C3.59649 20.0908 3.4165 20.5359 3.4165 21C3.4165 21.4641 3.59649 21.9092 3.91686 22.2374C4.23724 22.5656 4.67176 22.75 5.12484 22.75H35.8748C36.3279 22.75 36.7624 22.5656 37.0828 22.2374C37.4032 21.9092 37.5832 21.4641 37.5832 21C37.5832 20.5359 37.4032 20.0908 37.0828 19.7626C36.7624 19.4344 36.3279 19.25 35.8748 19.25Z" fill="#1572D3"/>
</svg>
